<svg focusable="false" aria-hidden="true" xmlns="http://www.w3.org/2000/svg" viewBox="0 0 32 32"><path fill="#FFF" d="M28 8.557a10 10 0 0 1-2.828.775 4.93 4.93 0 0 0 2.166-2.725 9.7 9.7 0 0 1-3.13 1.194 4.92 4.92 0 0 0-3.593-1.55 4.924 4.924 0 0 0-4.794 6.049c-4.09-.21-7.72-2.17-10.15-5.15a4.94 4.94 0 0 0-.665 2.477c0 1.71.87 3.214 2.19 4.1a5 5 0 0 1-2.23-.616v.06c0 2.39 1.7 4.38 3.952 4.83-.414.115-.85.174-1.297.174q-.476-.001-.928-.086a4.935 4.935 0 0 0 4.6 3.42 9.9 9.9 0 0 1-6.114 2.107q-.597 0-1.175-.068a13.95 13.95 0 0 0 7.55 2.213c9.056 0 14.01-7.507 14.01-14.013q0-.32-.015-.637c.96-.695 1.795-1.56 2.455-2.55z"></path></svg>